<svg version="1.1" xmlns="http://www.w3.org/2000/svg" xmlns:xlink="http://www.w3.org/1999/xlink" style="display:none;">

<symbol id="icon-connect" viewBox="0 0 128 128">
<path d="M108 88c-5.644 0-10.74 2.34-14.376 6.104l-53.876-26.94c0.164-1.032 0.252-2.088 0.252-3.164s-0.088-2.136-0.252-3.164l53.876-26.94c3.636 3.76 8.732 6.104 14.376 6.104 11.044 0 20-8.956 20-20s-8.956-20-20-20-20 8.956-20 20c0 1.076 0.088 2.136 0.252 3.168l-53.876 26.936c-3.636-3.76-8.732-6.104-14.376-6.104-11.044 0-20 8.956-20 20s8.956 20 20 20c5.644 0 10.74-2.34 14.376-6.104l53.876 26.94c-0.164 1.032-0.252 2.088-0.252 3.164 0 11.044 8.956 20 20 20s20-8.956 20-20c0-11.044-8.956-20-20-20z"></path>
</symbol>

<symbol id="icon-email" viewBox="0 0 128 128">
<path d="M0,0v97.504h128V0H0z M126.566,91.282l-5.066,4.992l-5.793-5.879H11.721L5.826,96.29l-5.03-5.025l6.31-6.309 V14.039c-2.954-3.563-5.245-6.418-6.582-8.104l5.57-4.42c1.434,1.812,2.954,3.685,4.518,5.59h106.763 c1.564-1.905,3.08-3.778,4.52-5.59l5.57,4.42c-1.338,1.687-3.625,4.538-6.582,8.104v71.485l5.674,5.758H126.566L126.566,91.282z M41.383,50.678L0.8,91.26l5.03,5.027l41.009-41.01c-1.784-1.418-3.608-2.961-5.452-4.604L41.383,50.678z M81.129,55.309 l40.365,40.965l5.066-4.992l-39.98-40.57C84.736,52.352,82.912,53.895,81.129,55.309z M41.383,50.678 c1.845,1.641,3.668,3.184,5.452,4.602c6.655,5.287,12.729,8.771,17.162,8.771c4.427,0,10.486-3.473,17.126-8.742 c1.783-1.414,3.605-2.959,5.453-4.6c12.508-11.116,26.025-26.684,34.307-36.67c2.953-3.563,5.244-6.414,6.582-8.104l-5.57-4.42 c-1.439,1.812-2.953,3.685-4.52,5.59C99.037,29.43,72.854,56.938,63.993,56.938c-8.856,0-35.042-27.509-53.384-49.833 c-1.564-1.905-3.08-3.778-4.518-5.59l-5.57,4.42c1.336,1.687,3.628,4.538,6.582,8.104c8.276,9.979,21.776,25.53,34.273,36.643 L41.383,50.678z"></path>
</symbol>

<symbol id="icon-facebook" viewBox="0 0 128 128">
<path d="M0 9.98v108.020s0 10 10 10h108c10 0 10-10 10-10v-108c0-10-10-10-10-10h-108s-10 0-10 9.98zM111.036 65h-16.036v58h-24v-58h-12v-20h12l0.044-14.084s0.128-6.684 2.176-11.056c0 0 2.036-5.16 5.892-7.804 0 0 3.58-2.764 7.988-3.7 0 0 4.74-1.048 7.908-1.048l18-0.024 0.028 19.976-10.864-0.016s-2.024-0.032-3.776 0.592c0 0-1.688 0.424-2.592 2.080 0 0-0.8 0.748-0.8 5.492v9.584h18.144l-2.108 20z"></path>
</symbol>

<symbol id="icon-globe" viewBox="0 0 128 128">
<path d="M64,0C28.654,0,0,28.654,0,64s28.654,64,64,64c4.326,0,8.55-0.43,12.635-1.249c-1.646-0.787-1.826-6.695-0.198-10.064 c1.813-3.75,7.5-13.25,1.875-16.438s-4.063-4.625-7.5-8.313s-2.032-4.242-2.25-5.188c-0.75-3.25,3.313-8.125,3.5-8.625 s0.188-2.375,0.125-2.938S69.625,73.125,69,73.063s-0.938,1-1.813,1.063s-4.688-2.313-5.5-2.938s-1.188-2.125-2.313-3.25 s-1.25-0.25-3-0.938S49,64.25,44.688,62.5s-4.688-4.203-4.75-5.938s-2.625-4.25-3.827-6.063s-1.423-4.313-1.861-3.75 s2.25,7.125,1.813,7.313s-1.375-1.813-2.625-3.438S34.75,49.875,30.75,42s1.25-11.891,1.5-16s3.375,1.5,1.75-1.125 s0.125-8.125-1.125-10.125S24.5,17,24.5,17c0.188-1.938,6.25-5.25,10.625-8.313S42.172,8,45.688,9.125s3.75,0.75,2.563-0.375 s0.5-1.688,3.25-1.25s3.5,3.75,7.688,3.438s0.438,0.813,1,1.875s-0.625,0.938-3.375,2.813s0.063,1.875,4.938,5.438 s3.375-2.375,2.875-5s3.563-0.563,3.563-0.563c3,2,2.446,0.11,4.633,0.797S80.938,22,80.938,22c-7.438,4.063-2.75,4.5-1.5,5.438 s-2.563,2.75-2.563,2.75c-1.563-1.563-1.813,0.063-2.813,0.625s-0.063,2-0.063,2c-5.172,0.813-4,6.25-3.938,7.563 s-3.313,3.313-4.188,5.188s2.25,5.938,0.625,6.188s-3.25-6.125-12-3.75c-2.638,0.716-8.5,3.75-5.375,9.938s8.313-1.75,10.063-0.875 s-0.5,4.813-0.125,4.875s4.938,0.172,5.188,5.5s6.938,4.875,8.375,5s6.25-3.938,6.938-4.125S83,65.813,89,69.25 s9.063,2.938,11.125,4.375s0.625,4.313,2.563,5.25s9.688-0.313,11.625,2.875s-8,19.188-11.125,20.938s-4.563,5.75-7.688,8.313 s-7.5,5.734-11.625,8.188c-3.651,2.171-4.308,6.061-5.935,7.289C106.583,120.113,128,94.558,128,64C128,28.654,99.346,0,64,0z M79,60.063c-0.875,0.25-2.688,1.875-7.125-0.75s-7.5-2.125-7.875-2.563c0,0-0.375-1.063,1.563-1.25 c3.979-0.385,9,3.688,10.125,3.75s1.688-1.125,3.688-0.48C81.375,59.414,79.875,59.813,79,60.063z M58.063,6.375 c-0.436-0.317,0.361-0.682,0.836-1.313c0.274-0.364,0.071-0.969,0.414-1.313c0.938-0.938,5.563-2.25,4.658,0.313 C63.067,6.625,58.75,6.875,58.063,6.375z M69.25,14.5c-1.563-0.063-5.241-0.451-4.563-1.125c2.641-2.625-1-3.375-3.25-3.563 S58.25,8.375,59.375,8.25S65,8.313,65.75,8.938s4.813,2.25,5.063,3.438S70.813,14.563,69.25,14.5z M82.813,14.063 c-1.25,1-7.54-3.588-8.75-4.625c-5.25-4.5-8.063-3-9.165-3.75c-1.103-0.75-0.71-1.75,0.978-3.25s6.438,0.5,9.188,0.813 s5.938,2.438,6,4.963S84.063,13.063,82.813,14.063z"></path>
</symbol>

<symbol id="icon-gov-delivery" viewBox="0 0 128 128">
<path fill="#911C2F" d="M3 19h121v91h-121z"></path><path stroke="#fff" stroke-width="7" stroke-miterlimit="10" fill="none" d="M3.5 18.5h121v91h-121zM48.341 63.978l-45.054 45.053M79.684 63.978l44.401 45.053M3.287 18.924s45.054 56.808 60.726 56.808c15.671 0 60.726-56.808 60.726-56.808"></path>
</symbol>

<symbol id="icon-microphone" viewBox="0 0 128 128">
<path d="M65.604 103.644v11.98c11.98 0.648 21.248 4.616 21.248 8.312 0 0.092-49.128 0.092-49.128 0 0-3.564 8.576-7.404 19.916-8.256v-12.084c-14.476-2.076-25.64-14.4-25.64-29.452v-5.972h3.984v5.972c0 14.296 11.588 25.888 25.884 25.892h0.016c14.296-0.004 26.132-11.592 26.132-25.892v-5.972h3.984v5.972c0 15.224-11.676 27.644-26.396 29.5zM61.872 95.804c-12.096 0-21.912-9.812-21.912-21.912v-5.724h44.072v5.724c0 12.1-10.064 21.912-22.16 21.912zM39.96 29.9c0-12.1 9.812-21.908 21.912-21.908s22.16 9.808 22.16 21.908v34.288h-44.072v-34.288z"></path>
</symbol>

<symbol id="icon-pictures" viewBox="0 0 128 128">
<path d="M1.512 1.512v96.36h95.304v-96.36h-95.304zM90.46 91.52h-82.596v-83.652h82.596v83.652zM14.216 85.164l9.956-22.076 5.628 6.28 17.312-28.244 10.824 23.756 8.224-9.984 12.12 30.272zM81.988 29.704c0 7.676-6.22 13.896-13.896 13.896s-13.896-6.224-13.896-13.896c0-7.676 6.224-13.896 13.896-13.896 7.676 0 13.896 6.224 13.896 13.896zM119.244 30.572l-0.42 6.184 1.604 0.084-4.444 83.536-82.504-4.384 0.048-0.88-6.184-0.4-0.38 7.14 94.88 5.044 5.1-95.912zM103.168 17.372v6.208l4.224 0.268-5.32 83.484-48.716-3.104h-40.084l-0.232 3.64 94.82 6.044 6.108-95.852z"></path>
</symbol>

<symbol id="icon-pinterest" viewBox="0 0 128 128">
<path d="M64 1.052c-34.768 0-62.948 28.18-62.948 62.948s28.18 62.948 62.948 62.948 62.948-28.184 62.948-62.948-28.184-62.948-62.948-62.948zM70.104 85.16c-5.72-0.444-8.12-3.276-12.604-6-2.468 12.932-5.48 25.328-14.404 31.804-2.752-19.544 4.044-34.224 7.2-49.808-5.384-9.064 0.648-27.3 12-22.804 13.968 5.528-12.096 33.688 5.404 37.204 18.272 3.672 25.732-31.7 14.4-43.208-16.372-16.608-47.652-0.376-43.808 23.404 0.936 5.816 6.944 7.58 2.4 15.604-10.476-2.324-13.604-10.584-13.2-21.604 0.648-18.032 16.204-30.66 31.804-32.404 19.732-2.208 38.248 7.244 40.804 25.804 2.88 20.948-8.904 43.636-30.004 42.004z"></path>
</symbol>

<symbol id="icon-share" viewBox="0 0 32 32">
<path d="M24 25.28h-20.8v-14.4h4.152c0 0 1.103-1.434 3.472-3.2h-9.224c-0.883 0-1.6 0.717-1.6 1.6v17.6c0 0.885 0.717 1.6 1.6 1.6h24c0.885 0 1.6-0.715 1.6-1.6v-5.994l-3.2 2.632v1.762zM21.379 14.16v5.68l10.621-8.322-10.621-7.998v5.008c-12.899 0.002-12.899 12.752-12.899 12.752 3.651-5.997 5.897-7.12 12.899-7.12z"></path>
</symbol>

<symbol id="icon-twitter" viewBox="0 0 128 128">
<path d="M156.496 15.784c-5.732 2.528-11.88 4.248-18.332 5.012 6.592-3.944 11.648-10.208 14.016-17.66-6.172 3.668-12.992 6.312-20.256 7.752-5.824-6.196-14.108-10.072-23.296-10.072-17.612 0-31.904 14.292-31.904 31.904 0 2.508 0.28 4.944 0.836 7.264-26.52-1.324-50.028-14.040-65.756-33.344-2.736 4.712-4.316 10.188-4.316 16.032 0 11.068 5.64 20.836 14.2 26.544-5.22-0.164-10.14-1.6-14.456-3.992v0.392c0 15.452 11 28.356 25.592 31.28-2.668 0.72-5.5 1.116-8.4 1.116-2.064 0-4.060-0.208-6.008-0.58 4.060 12.672 15.848 21.904 29.792 22.16-10.928 8.56-24.664 13.668-39.632 13.668-2.576 0-5.104-0.164-7.612-0.44 14.108 9.048 30.884 14.34 48.912 14.34 58.684 0 90.772-48.612 90.772-90.772 0-1.392-0.024-2.76-0.092-4.132 6.24-4.5 11.648-10.116 15.916-16.52l0.024 0.044z"></path>
</symbol>

<symbol id="icon-tv" viewBox="0 0 128 128">
<path d="M111 127h-94c-8.82 0-16-7.176-16-16v-71c0-8.82 7.18-16 16-16h94c8.824 0 16 7.18 16 16v71c0 8.824-7.176 16-16 16zM17 36c-2.204 0-4 1.792-4 4v71c0 2.208 1.796 4 4 4h94c2.208 0 4-1.792 4-4v-71c0-2.208-1.792-4-4-4h-94zM44.252 33c0-11 8.676-19.376 19.376-19.376s19.376 8.376 19.376 19.376h-38.752zM30.84 114c0-18.416 14.68-32.788 32.788-32.788 18.104 0 32.788 14.372 32.788 32.788h-65.572zM61.668 17.34c0.776 0.776 0.776 2.052 0 2.828s-2.052 0.776-2.828 0l-13.964-13.964c-0.776-0.776-0.776-2.052 0-2.828s2.052-0.776 2.828 0l13.964 13.964zM67.7 20.168c-0.776 0.776-2.052 0.776-2.828 0s-0.776-2.052 0-2.828l13.964-13.964c0.776-0.776 2.052-0.776 2.828 0s0.776 2.052 0 2.828l-13.964 13.964zM84.068 60.228c0 11.324-9.18 20.504-20.504 20.504s-20.504-9.18-20.504-20.504c0-11.324 9.18-20.504 20.504-20.504s20.504 9.18 20.504 20.504z"></path>
</symbol>

<symbol id="icon-wheelchair" viewBox="0 0 128 128">
<path d="M26.964 74.848l-10.12-60.62s1.66-12.98 13.536-12.98c0 0 13.704 0 14.54 11.68 0 0 2.876 12.684-13.012 15.732l2.576 16.164 38.556-0.072 0.032 12.456h-36.812l0.8 4.288 49.96-0.012 17.244 39.028 19.096-6.548 3.548 11.384-29.228 10.048-17.932-40.768-52.784 0.22zM21.596 65.348s-14.772 14.128-4.756 35.16c0 0 13.544 21.64 36.028 13.688 0 0 16.060-4.732 23.328-26.876l6.592 14.876s-7.104 17.412-26.372 23.5c0 0-34.22 9.408-50.544-20.288 0 0-15.212-30.768 13.184-54.856l2.532 14.792z"></path>
</symbol>

<symbol id="icon-youtube" viewBox="0 0 128 128">
<path d="M0,0l128,64L0,128V0z"></path>
</symbol>

</svg>