<svg xmlns="http://www.w3.org/2000/svg" xmlns:xlink="http://www.w3.org/1999/xlink" version="1.2" baseProfile="tiny" id="Layer_1" x="0" y="0" width="256" height="256" viewBox="0" xml:space="preserve"><path fill="none" d="M156.88 131.47"/><path fill="#333366" d="M15.68 127.55l0.04 0.02 0.05 0.02 0.07 0.04 0.07 0.05 0.1 0.04 0.12 0.05 0.12 0.05 0.16 0.07 0.17 0.05 0.17 0.05 0.19 0.05 0.21 0.07 0.23 0.03 0.24 0.05 0.25 0.03 0.28 0.03 0.28 0.04 0.28 0.02h0.3l0.31-0.02 0.33-0.02 0.33-0.04 0.35-0.04 0.37-0.07 0.37-0.09 0.37-0.1 0.38-0.12 0.19-0.07 0.19-0.07 0.21-0.09 0.19-0.09 0.21-0.09 0.21-0.09 0.19-0.1 0.21-0.12c5.09-2.78 7.46-4.42 13.25-16.73 6-12.81 12.27-28.63 22.23-37.63 9.81-8.84 21.08-15.43 37.18-11.5 0 0-0.21 1.35-6.78 1.83C86.17 63.38 76.16 65.56 66.51 73.86c-11.08 9.6-17.74 26.78-21.48 34.48 -2.83 5.8-10.54 23.47-21.2 23.86 -3.88 0.16-8.14-4.65-8.14-4.65L15.68 127.55z"/><path fill="#333366" d="M56.74 99.03l0.49-1.12 0.51-1.08 0.49-1.05 0.51-1.03 0.51-1 0.51-0.98 0.49-0.93 0.51-0.91 0.51-0.89 0.51-0.86 0.51-0.82 0.49-0.8 1.01-1.54 0.98-1.42 0.98-1.33 0.98-1.22 0.94-1.15 0.93-1.05 0.91-0.96 0.89-0.89 0.86-0.81 0.84-0.73 0.8-0.67 0.77-0.61 0.73-0.52 0.68-0.47 0.66-0.42 0.61-0.35 0.56-0.31 0.51-0.26 0.47-0.23 0.4-0.17 0.37-0.14 0.28-0.1 0.25-0.09 0.17-0.05 0.09-0.02 0.04-0.02c0 0-0.04 5.09 0.44 6.66 0 0-9.28 2.12-19.51 28.86 -3.55 9.14-10.63 24.57-22.93 24.57 0 0 7.15-5.35 19.28-33.09L56.74 99.03z"/><path fill="#333366" d="M63.4 117.01v-0.02l0.02-0.04 0.02-0.07 0.03-0.07 0.05-0.12 0.07-0.12 0.07-0.16 0.07-0.19 0.1-0.21 0.11-0.25 0.12-0.26 0.12-0.28 0.14-0.33 0.16-0.33 0.17-0.38 0.17-0.4 0.19-0.42 0.21-0.47 0.21-0.49 0.23-0.51 0.25-0.54 0.26-0.59 0.26-0.59 0.3-0.65 0.3-0.66 0.31-0.7 0.31-0.73 0.35-0.77 0.35-0.79 0.37-0.84 0.38-0.86 0.4-0.91c9.04-20.62 19.3-23.23 22.01-23.46 2.92-0.25 4.65 1.42 4.65 1.42s-13.39 3.85-22.32 31.04c0 0-6.96 2.31-10.45 4.75L63.4 117.01z"/><path fill="#333366" d="M81.74 109.85v-0.02l0.02-0.04 0.02-0.07 0.04-0.09 0.04-0.1 0.05-0.14 0.05-0.16 0.07-0.18 0.16-0.42 0.19-0.51 0.23-0.56 0.26-0.65 0.3-0.7 0.35-0.75 0.37-0.82 0.4-0.86 0.45-0.89 0.47-0.93 0.52-0.98 0.54-0.98 0.59-1.01 0.63-1.03 0.66-1.03 0.7-1.03 0.73-1.05 0.77-1.03 0.82-1.01 0.84-1.01 0.89-0.98 0.93-0.94 0.96-0.93 1-0.89 1.03-0.84 1.08-0.79 1.12-0.73 1.15-0.68 3.5 3.81c0 0-10.19 8-14.28 19.66 0 0-5.26 0.61-7.65 1.35H81.74z"/><path fill="#333366" d="M104.72 109.27l0.09-0.44 0.12-0.44 0.14-0.45 0.18-0.44 0.19-0.45 0.19-0.45 0.23-0.44 0.23-0.46 0.24-0.44 0.26-0.44 0.26-0.44 0.28-0.42 0.28-0.42 0.28-0.4 0.28-0.38 0.28-0.38 0.28-0.37 0.28-0.37 0.26-0.33 0.26-0.31 0.25-0.3 0.24-0.3 0.23-0.26 0.21-0.23 0.19-0.23 0.17-0.18 0.14-0.17 0.07-0.07 0.05-0.07 0.07-0.05 0.03-0.05 0.05-0.05 0.03-0.03 0.02-0.02 0.02-0.02 0.02-0.02 -3.34-4.51c0 0-6.73 4.7-10.35 14.31 0 0 2.76-0.04 4.04 0.19 1.26 0.28 3.23 0.31 3.23 0.31L104.72 109.27z"/><path fill="#333366" d="M101.49 68.02v0.02h0.02v0.02l0.02 0.02 0.02 0.02 0.02 0.03 0.02 0.02 0.04 0.05 0.03 0.05 0.05 0.07 0.05 0.07 0.05 0.07 0.05 0.09 0.05 0.09 0.05 0.1 0.07 0.1 0.05 0.1 0.07 0.1 0.07 0.12 0.05 0.1 0.07 0.14 0.05 0.12 0.05 0.12 0.05 0.14 0.05 0.12 0.05 0.14 0.04 0.14 0.03 0.14 0.03 0.14 0.04 0.14 0.02 0.14 0.02 0.14v0.28c0 0 1.82-1.54 5.7-1.47 0 0-5.26-1.47-6.99-1.7L101.49 68.02z"/><path fill="#333366" d="M132.14 92.3h0.07l0.03-0.02h0.04l0.07-0.02h0.05l0.07-0.02h0.07l0.09-0.02 0.09-0.02 0.17-0.04 0.23-0.03 0.23-0.05 0.25-0.05 0.28-0.05 0.28-0.07 0.3-0.07 0.3-0.07 0.32-0.07 0.33-0.09 0.33-0.11 0.33-0.09 0.31-0.12 0.33-0.1 0.33-0.12 0.33-0.12 0.32-0.14 0.3-0.14 0.3-0.14 0.3-0.16 0.26-0.16 0.26-0.17 0.23-0.17 0.23-0.17 0.19-0.19 0.09-0.11 0.09-0.1c0 0 13.81 6.43 18.19 17.48 0 0-5.73 0.04-8.55 0.77 0 0-4.14-8-17.43-15.24H132.14z"/><path fill="#333366" d="M174.19 108.54h-0.02l-0.02-0.02h-0.03l-0.04-0.02h-0.05l-0.05-0.02 -0.05-0.02 -0.07-0.02 -0.07-0.02 -0.09-0.02 -0.09-0.04 -0.19-0.05 -0.21-0.05 -0.25-0.05 -0.24-0.07 -0.28-0.07 -0.3-0.07 -0.32-0.07 -0.31-0.07 -0.33-0.07 -0.35-0.07 -0.35-0.07 -0.37-0.07 -0.73-0.14 -0.75-0.12 -0.37-0.05 -0.37-0.04 -0.37-0.05 -0.37-0.02 -0.35-0.03 -0.35-0.02h-0.94l-0.3 0.04c0 0-0.07-12.43-20.4-21.64 0 0 3.36-4.18 4.23-6.1 0 0 22.09 7.46 25.13 29.12L174.19 108.54z"/><path fill="#333366" d="M194.59 117.85l-0.02-0.02 -0.04-0.03 -0.07-0.05 -0.09-0.07 -0.1-0.09 -0.14-0.1 -0.16-0.12 -0.19-0.14 -0.19-0.16 -0.23-0.17L193.13 116.7l-0.28-0.19 -0.28-0.21 -0.32-0.21 -0.33-0.25 -0.35-0.23 -0.37-0.26 -0.38-0.24 -0.4-0.26 -0.44-0.28 -0.44-0.26 -0.45-0.28 -0.47-0.3 -0.49-0.28 -0.51-0.28 -0.51-0.3 -0.54-0.3 -0.54-0.28 -0.56-0.3 -0.58-0.28 -0.59-0.28 -0.59-0.28c0 0-5.51-33.37-32.86-34.71 0 0 1.8-3.62 3.11-5.85 0.35-0.56 1.22-1.03 1.57-1.22 0 0 16.39-4.35 29.98 5.19 6.21 4.35 13.48 16.59 19.47 31.79 5 12.53 11.27 22.69 12.78 24.73 0 0-6.33-0.73-10.19-4.67 -5.31-5.33-13.7-31.72-19.24-39.31 -5.35-7.43-10.31-13.97-25.78-13.07 0 0 10.86 3.18 17.78 12.41 7.88 10.56 14.28 31.41 14.28 31.41L194.59 117.85z"/><path fill="#333366" d="M146.23 62.52l-0.35 0.84 -0.33 0.82 -0.33 0.79 -0.33 0.79 -0.33 0.75 -0.31 0.75 -0.33 0.7 -0.33 0.7 -0.33 0.68 -0.33 0.65 -0.33 0.61 -0.33 0.61 -0.35 0.58 -0.35 0.54 -0.37 0.52 -0.37 0.49 -0.39 0.47 -0.38 0.45 -0.4 0.4 -0.42 0.38 -0.42 0.35 -0.44 0.33 -0.46 0.3 -0.47 0.26 -0.51 0.23 -0.51 0.19 -0.52 0.18 -0.54 0.12 -0.58 0.11 -0.58 0.05 -0.61 0.03 -0.65-0.02c-13.13-0.61-15.15-8.39-15.28-9.46 -0.19-1.5 2.59-3.13 2.59-3.13 -0.73 0-6.36 0.35-13.48-1.77 -9.84-2.85-9.87 3.9-9.87 3.9s-12.09-3.16-13.7 2.99c-0.77 2.88-0.09 7.01-0.09 7.01s8.77-4.67 15.52 0.87c5.77 4.81 6.96 8.77 15.26 18.28 4.25 4.81 14.98 20.62 28.56 13.49 0 0-1.85-3.57-10.92-9.61 -3.97-2.62-10.05-5.31-13.93-8.42 -3.62-2.94-5.09-4.11-12.3-12.43 -3.04-3.5-12.29-8.2-17.64-6.41 -0.49 0.17-0.58 0.61-1 0.91 0 0-0.16-2.34 0.19-3.27 0.51-1.31 5.93-1.7 12.43 0.16 0 0-1.26-5.16 3.85-4.26 5.16 0.91 10.21 2.66 11.78 2.22 0 0 0.11 11.89 18.81 13.09 9.19 0.58 12.97-9.44 15.28-13.27 0.7-1.14 2.31-3.36 3.97-3.79 12.08-3.22 34.27-2.99 47.79 19.89 5.61 9.63 14.35 29.59 18.04 35.87 9.16 15.7 16.01 12.85 21.87 7.46 0 0-8.67 4.82-16.39-12.97 -3.5-8.07-15.5-34.4-24.56-42.54 -4.53-4.13-11.12-10.38-23.07-12.88 -23.72-4.93-30.39 3.41-30.39 3.41L146.23 62.52z"/><path fill="#333366" d="M11.88 96.65l-0.07 1.03c-2.36 0-4.47 0.54-5.05 3.13 -0.49 2.22 0.54 4.14 2.85 4.69 5.77 1.27 6.62-9.14 12.69-7.78 3.81 0.86 5.98 3.97 4.96 8.39 -0.45 2.08-1.54 4.58-2.95 5.86l-5.09-0.77 -0.03-1.08c1.66 0.12 3.04 0.09 4-0.19 1.42-0.33 2.62-2.57 2.88-3.88 0.58-2.5-0.26-4.7-2.92-5.26 -5.16-1.15-5.77 9.3-13.42 7.57 -3.23-0.7-5.24-3.81-4.28-8.04 0.31-1.5 1.15-2.85 1.66-4.26l4.77 0.61L11.88 96.65z"/><path fill="#333366" d="M29.65 70.75l0.51 0.26 0.51 0.26 0.47 0.3 0.46 0.3 0.44 0.32 0.42 0.35 0.38 0.35 0.37 0.37 0.35 0.39 0.31 0.38 0.3 0.42 0.28 0.42 0.25 0.44 0.23 0.44 0.19 0.45 0.19 0.47 0.14 0.47 0.12 0.49 0.1 0.51L35.75 78.63l0.03 0.51 0.04 0.52v0.52l-0.04 0.54 -0.05 0.54 -0.09 0.54 -0.1 0.56 -0.14 0.56 -0.16 0.56 -0.19 0.56 -0.23 0.58 -0.24 0.56c-3.27 7.2-9.21 8.65-14.86 6.06 -6.43-2.95-8.81-8.62-5.96-14.77 3.3-7.18 9.42-8.69 15.89-5.73V70.75zM33.58 84.57l0.21-0.49 0.17-0.49 0.14-0.45 0.1-0.47 0.09-0.44 0.05-0.44 0.02-0.44v-0.42l-0.03-0.42 -0.07-0.4 -0.09-0.38 -0.1-0.38 -0.14-0.38 -0.16-0.37 -0.18-0.35 -0.21-0.35 -0.23-0.33 -0.23-0.33 -0.26-0.31 -0.28-0.31 -0.3-0.3 -0.31-0.3 -0.31-0.28 -0.35-0.28 -0.35-0.26 -0.37-0.25 -0.38-0.24 -0.38-0.24 -0.4-0.23 -0.4-0.21 -0.42-0.21 -0.42-0.21c-5.93-2.69-11.34-0.61-13.2 3.51 -1.96 4.18-0.16 8.21 4.96 10.57 6.24 2.85 11.59 1.77 13.83-3.11H33.58z"/><path fill="#333366" d="M41.38 46.44l-0.68 0.86c-2.39-1.54-5.35-1.82-9.04 2.83 -3.44 4.35-3.51 8.55 1 12.13 5 3.97 11.54 3.93 15.12-0.58 1.99-2.57 2.5-5.51 1.29-8.55l0.96-0.23 1.85 4.39c-0.93 2.11-2.03 3.97-3.27 5.54 -4.39 5.54-10.31 7.76-16.78 2.66 -5.45-4.32-6.08-10.21-1.14-16.36 1.38-1.73 4.02-4.39 6.06-5.92l4.61 3.23H41.38z"/><path fill="#333366" d="M46.57 35.51L58.93 49.25l2.62-1.62 0.7 0.79 -6.78 6.07 -0.73-0.77 1.92-2.43L44.31 37.56l-2.62 1.61 -0.7-0.77 6.78-6.06 0.73 0.75L46.57 35.51z"/><path fill="#333366" d="M64.76 36.75l1.5 6.64 2.87-1.15 0.56 0.89 -6.57 4.16 -0.54-0.93 1.92-1.85 -4.07-21.66 1.35-0.86 18.13 12.83 2.53-0.96 0.54 0.87 -7.59 4.77 -0.54-0.89 2.27-2.03 -5.68-4.04L64.76 36.75zM64.47 35.09l5.58-3.51 -7.34-5.23L64.47 35.09z"/><path fill="#333366" d="M84.78 33.14l2.69-1.56 -6.31-17.34 -2.99 0.54 -0.38-1.01 8.58-3.11 0.33 1 -2.64 1.54 6.15 17.09 7.43-2.71 0.26-4.53 0.96-0.35 0.77 6.19 -14.47 5.24L84.78 33.14z"/><path fill="#333366" d="M130.18 8.19l-1.05 0.16c-0.54-2.27-1.61-4.19-4.19-4.11 -2.31 0.07-3.92 1.52-3.85 3.88 0.16 5.93 10.44 4.19 10.63 10.42 0.07 3.93-2.43 6.73-6.94 6.89 -2.12 0.04-4.81-0.38-6.38-1.47l-0.49-5.1 1.03-0.28c0.26 1.63 0.7 2.94 1.15 3.81 0.7 1.28 3.16 1.89 4.47 1.85 2.52-0.09 4.46-1.38 4.37-4.12 -0.14-5.3-10.38-3.3-10.61-11.19 -0.09-3.27 2.43-5.96 6.76-6.08 1.5-0.04 3.01 0.44 4.51 0.54l0.58 4.81V8.19z"/><path fill="#333366" d="M142.72 14.24l5.66 0.84 0.93-2.18 0.89 0.1c-0.44 1.63-0.86 4.51-0.94 6.2l-0.91-0.16 -0.19-2.43 -5.66-0.84 -1.27 8.34 8.51 1.28 1.73-3.15 1.12 0.17 -2.04 5.02 -15.57-2.31 0.16-1.05 3.08-0.07 2.73-18.28 -2.92-0.96 0.14-1.03 14.12 2.11 -0.26 4.77 -0.93-0.16 -0.38-3.11 -6.76-1 -1.21 7.88H142.72z"/><path fill="#333366" d="M179.35 20.81l-1-0.38c0.68-2.76 0.07-5.65-5.51-7.73 -5.19-1.98-9.19-0.73-11.24 4.65 -2.24 5.96-0.19 12.2 5.19 14.19 3.04 1.15 6.01 0.73 8.55-1.35l0.51 0.84 -3.58 3.13c-2.31-0.23-4.42-0.73-6.31-1.47 -6.62-2.46-10.59-7.43-7.69-15.12 2.46-6.5 7.85-8.88 15.22-6.12 2.08 0.77 5.43 2.5 7.5 4L179.35 20.81 179.35 20.81z"/><path fill="#333366" d="M204.59 31.51l-5.8 8.58c-3.39 5-7.78 7.08-13.54 3.18 -5.44-3.64-5.86-8.09-3.09-11.99l6.94-10.28 -2.18-2.12 0.56-0.89 7.55 5.12 -0.58 0.84 -2.81-1.26 -6.31 9.35c-2.66 3.78-2.85 7.31 1.08 9.96 1.26 0.86 3.65 1.77 5.93 1.08 1.8-0.54 3.34-2.78 4.26-4.2l5.96-8.77 -2.22-2.17 0.61-0.87 7.08 4.81 -0.61 0.89 -2.81-1.28V31.51z"/><path fill="#333366" d="M200.33 52.4l13.56-12.53 -1.77-2.71 0.77-0.68 6.9 7.46c2.06 2.27 2.92 5.51 0.19 8 -1.94 1.8-4.82 2.04-7.32 1.45l-1.24 6.55c-0.33 1.89-0.87 4.26-0.14 6.27l-0.89 0.37 -1.15-2.12c-0.33-0.65-0.93-1.71-0.93-1.99 0.47-3.62 1.15-7.27 1.96-10.66 -0.75-0.68-1.52-1.45-2.34-2.34l-5.58 5.16 1.7 2.57 -0.8 0.75 -6.27-6.82 0.77-0.73L200.33 52.4 200.33 52.4zM208.98 48.55l0.03 0.05 0.03 0.05 0.05 0.05 0.05 0.05 0.05 0.07 0.05 0.05 0.05 0.07 0.05 0.05 0.05 0.07 0.05 0.05 0.07 0.07 0.05 0.05 0.12 0.14 0.1 0.12c2.59 2.81 3.97 4.04 7.17 1.08 2.53-2.34 2.81-4.96 0.42-7.53 -0.42-0.47-0.86-0.86-1.28-1.12l-7.15 6.61L208.98 48.55z"/><path fill="#333366" d="M231.82 61.8l-15.38 10.15 1.24 2.85 -0.89 0.58 -5.05-7.64 0.89-0.56 2.12 2.22 15.43-10.16 -1.24-2.85 0.89-0.56 5 7.6 -0.89 0.58L231.82 61.8z"/><path fill="#333366" d="M222.91 84.17l16.69-7.5 -1.57-3.5c-0.47-1-0.93-1.92-1.4-2.78l-3.57 0.44 -0.47-1 5.12-1.59 8.32 18.51L241.29 89.19l-0.47-1.05 2.85-2.06c-0.35-0.94-0.77-1.97-1.22-3.06l-1.62-3.57 -16.69 7.5 0.93 3.34 -0.96 0.44 -4.09-9.05 0.98-0.42 1.92 2.92L222.91 84.17z"/><path fill="#333366" d="M229.9 104.53l7.36-1.64 9.23-8.9 -0.16-3.09 1.05-0.21 2.04 9.23 -1.01 0.23 -1.19-2.88 -7.55 7.43 9.86 2.85 -0.16-3.09 1.01-0.21 1.68 7.5 -1.03 0.23 -1.05-2.31 -12.11-3.81 -7.3 1.66 0.26 3.65 -1 0.23 -2.27-10.08 1.03-0.19L229.9 104.53z"/><path fill="#333366" d="M13.48 153.09l-6.83-0.61 0.26 3.08 -1.03 0.28 -1.94-7.48 1.05-0.26 1.15 2.43 21.9 2.64 0.37 1.54 -17.72 13.41 0.16 2.66 -1.05 0.26 -2.24-8.67 1.05-0.26 1.26 2.81 5.59-4.19 -1.98-7.62H13.48zM15.14 153.31l1.63 6.4 7.22-5.44L15.14 153.31z"/><path fill="#333366" d="M12.26 173.26l1.85 2.48 16.41-8.37 -0.87-2.97 0.93-0.45 5.23 10.28c2.97 5.8 3.46 11.99-3.5 15.5 -7.31 3.72-12.78 0.23-15.97-6.05l-5.03-9.93 0.96-0.49H12.26zM15.65 178.33l0.1 0.35 0.12 0.35 0.11 0.33 0.1 0.33 0.12 0.31 0.1 0.33 0.23 0.63 0.12 0.32 0.12 0.31 0.12 0.31 0.14 0.32 0.14 0.33 0.14 0.32 0.16 0.32 0.16 0.33c2.43 4.74 6.85 6.5 12.11 3.81 6.4-3.23 7.2-8.27 4.28-14 -0.58-1.15-1.21-2.27-1.89-3.39l-16.5 8.39L15.65 178.33z"/><path fill="#333366" d="M56.78 205.49l-12.55 13.7 1.54 2.5 -0.77 0.68 -5.96-6.64 0.77-0.7 2.43 1.89 11.85-12.78 -0.05-0.03 -0.07 0.03 -19.16 6.66 -0.23-0.32 8.42-18.09 -0.04-0.02 -0.05 0.02L29.3 202.45l1.5 2.5 -0.77 0.7 -4.89-5.42 0.8-0.73 2.17 1.61 15-10.89 -1.8-2.8 0.8-0.73 4.51 5.03 -7.32 15.75 16.32-5.63 4.42 4.93 -0.77 0.72L56.78 205.49z"/><path fill="#333366" d="M66.2 213.14l-11.08 14.79 2.12 2.25 -0.65 0.86 -7.27-5.51 0.61-0.8 2.76 1.38 11.08-14.77 -2.12-2.27 0.61-0.8 7.32 5.45 -0.66 0.84L66.2 213.14z"/><path fill="#333366" d="M65.46 234.69l8.09-16.62 -2.52-1.77 0.47-0.96 5.12 2.46 6.31 21.85 6.69-13.77 -2.52-1.77 0.47-0.96 7.04 3.43 -0.44 0.96 -2.95-0.86 -8.9 18.19 -1.38-0.7c-0.84-2.99-5.35-18.46-6.76-23.3l-7.11 14.61 2.6 1.85 -0.45 0.91 -7.18-3.46 0.45-0.96 2.95 0.86H65.46z"/><path fill="#333366" d="M102.83 230.24l-4.7 17.88 2.81 1.28 -0.28 1 -8.84-2.31 0.26-1 3.09 0.26 4.68-17.9 -2.81-1.26 0.28-1.05 8.81 2.31L105.87 230.5 102.83 230.24z"/><path fill="#333366" d="M120.61 236.81l-1.05 0.04c-0.19-2.31-1-4.39-3.62-4.68 -2.27-0.28-4.07 0.96-4.35 3.27 -0.68 5.89 9.74 5.65 9.02 11.89 -0.47 3.88-3.36 6.31-7.87 5.77 -2.11-0.23-4.72-1.08-6.1-2.34l0.26-5.16 1.03-0.11c0.05 1.64 0.28 3.02 0.58 3.92 0.54 1.38 2.85 2.34 4.2 2.5 2.53 0.31 4.61-0.73 4.96-3.43 0.63-5.28-9.84-4.81-8.91-12.62 0.38-3.27 3.27-5.58 7.57-5.03 1.5 0.14 2.97 0.87 4.44 1.19L120.61 236.81 120.61 236.81z"/><path fill="#333366" d="M135.31 251.09l-1.31-18.28 -3.85 0.26c-1.08 0.09-2.11 0.25-3.06 0.35l-0.87 3.5 -1.03 0.09 0.26-5.31 20.19-1.45 0.7 5.26 -1.15 0.07 -1-3.37c-1 0-2.12 0.04-3.23 0.11l-3.97 0.28 1.35 18.26 3.46 0.28 0.09 1.08 -9.89 0.68 -0.07-1.03 3.39-0.77H135.31z"/><path fill="#333366" d="M156.31 248.15l-5.24-17.69 -3.23 0.38 -0.26-1 9.74-2.88c2.95-0.89 6.22-0.19 7.31 3.34 0.73 2.53-0.31 5.23-1.98 7.24l5.37 3.97c1.54 1.14 3.46 2.66 5.52 2.87l-0.03 1.01 -2.41 0.09c-0.73 0.02-1.92 0.11-2.17-0.05 -3.08-2.04-6.03-4.23-8.72-6.47 -0.93 0.38-2.01 0.73-3.13 1.08l2.17 7.27 3.04-0.35 0.3 1.01 -8.88 2.6 -0.31-1 2.94-1.43L156.31 248.15zM156.68 238.7h0.04l0.03-0.02h0.03l0.02-0.02h0.03l0.04-0.02 0.07-0.02 0.09-0.02 0.07-0.04 0.07-0.02 0.09-0.02 0.09-0.04 0.07-0.02 0.17-0.05 0.09-0.02 0.09-0.02 0.07-0.04 0.09-0.02c3.65-1.08 5.35-1.77 4.13-5.93 -0.96-3.34-3.23-4.68-6.59-3.72 -0.58 0.19-1.12 0.4-1.54 0.65l2.76 9.35L156.68 238.7z"/><path fill="#333366" d="M178.88 233.89l1.05 6.76 2.92-1 0.51 0.96 -6.85 3.62 -0.49-0.93 2.06-1.7 -2.53-21.9 1.43-0.75 17.15 14.07 2.59-0.77 0.49 0.92 -7.92 4.23 -0.47-0.93 2.43-1.92 -5.38-4.42 -6.97 3.74V233.89zM178.69 232.23l5.85-3.13 -6.97-5.71 1.12 8.84V232.23z"/><path fill="#333366" d="M203.98 224.92l-11.5-14.25 -3.01 2.43c-0.86 0.68-1.61 1.38-2.31 1.99l1.31 3.39 -0.86 0.7 -2.81-4.54 15.78-12.78 3.53 3.97 -0.87 0.73 -2.73-2.24c-0.82 0.58-1.73 1.22-2.62 1.96l-3.08 2.47 11.54 14.23 3.01-1.71 0.65 0.8 -7.69 6.24 -0.7-0.82L203.98 224.92 203.98 224.92z"/><path fill="#333366" d="M207.82 196.26l13.88 12.17 2.39-1.94 0.8 0.7 -6.05 6.85 -0.75-0.7 1.61-2.6 -13.9-12.2 -2.41 1.92 -0.77-0.7 6-6.83 0.77 0.68L207.82 196.26z"/><path fill="#333366" d="M231.72 179.39l0.49 0.31 0.45 0.33 0.44 0.35 0.4 0.35 0.4 0.38 0.35 0.38 0.35 0.4 0.32 0.4 0.3 0.42 0.26 0.44 0.24 0.44 0.23 0.45 0.19 0.46 0.16 0.47 0.14 0.49 0.12 0.49 0.09 0.49 0.07 0.49L236.75 187.45l0.02 0.52v0.51l-0.05 0.52 -0.07 0.52 -0.09 0.52 -0.12 0.52 -0.14 0.54 -0.17 0.52 -0.21 0.54 -0.23 0.54 -0.26 0.52 -0.28 0.54 -0.32 0.54c-4.19 6.73-10.22 7.43-15.54 4.16 -6.01-3.74-7.62-9.63-4.06-15.4 4.16-6.73 10.43-7.46 16.48-3.71L231.72 179.39zM233.9 193.57l0.26-0.46 0.25-0.46 0.19-0.45 0.18-0.44 0.14-0.44 0.1-0.42 0.07-0.42 0.03-0.42 0.02-0.42V189.25l-0.04-0.4 -0.07-0.4 -0.09-0.38 -0.1-0.38 -0.14-0.37 -0.16-0.37 -0.17-0.37 -0.19-0.35 -0.23-0.35 -0.25-0.35 -0.24-0.33 -0.28-0.32 -0.28-0.33 -0.32-0.31 -0.31-0.3 -0.33-0.3 -0.35-0.3 -0.35-0.28 -0.37-0.26 -0.38-0.28 -0.39-0.24 -0.4-0.26c-5.49-3.43-11.15-1.99-13.53 1.82 -2.46 3.93-1.15 8.15 3.65 11.12 5.8 3.62 11.22 3.23 14.07-1.38L233.9 193.57z"/><path fill="#333366" d="M242.01 175.16l-17.57-5.61 -1.47 2.73 -1-0.33 1.73-5.38 20.69-9.35 -14.54-4.67 -1.42 2.73 -1.01-0.35 2.43-7.41 1 0.3 -0.42 3.06 19.24 6.13 -0.45 1.47c-2.85 1.28-17.55 7.94-22.13 10.05l15.45 4.96 1.47-2.85 1 0.3 -2.41 7.62 -1-0.32 0.4-3.08V175.16z"/><path fill="#333366" d="M131.79 218.96l3.32-3.41 0.03-65.16h-6.69v65.09L131.79 218.96z"/><path fill="#333366" d="M95.02 206.41v-56.02h-6.66v46.16c0 9.93 6.66 9.86 6.66 9.86V206.41z"/><path fill="#333366" d="M108.9 210.68v-60.28h-6.68v58.71L108.9 210.68z"/><path fill="#333366" d="M122.06 214.07v-63.67h-6.69l0.04 62.01L122.06 214.07z"/><path fill="#333366" d="M169.23 206.29v-56.02h6.69v46.18C175.93 206.49 169.23 206.29 169.23 206.29L169.23 206.29z"/><path fill="#333366" d="M155.49 210.64l-0.12-60.37h6.71l0.04 58.45L155.49 210.64z"/><path fill="#333366" d="M142.17 213.84l0.05-63.57h6.7l-0.03 62.01L142.17 213.84z"/><path fill="none" d="M156.8 131.82"/><path fill="none" d="M157.47 131.57"/><path fill="none" d="M157.83 131.89"/><path fill="#CC3333" d="M135.03 115.96l-0.07-0.02 -0.07-0.02 -0.09-0.03 -0.09-0.02L134.63 115.86l-0.11-0.02 -0.1-0.02 -0.11-0.02 -0.12-0.02 -0.12-0.02 -0.12-0.02 -0.12-0.02 -0.12-0.02h-0.14l-0.26-0.04 -0.26-0.02 -0.28-0.02 -0.26-0.02 -0.28-0.02h-0.96c0 0-3.65-0.23-6.31 1.96 0 0-3.72 2.62-3.81 6.89 0 0 0.54 5.35 4.35 7.31 0 0 0.16 0.51 5.85 3.09 0 0 3.78 1.07 3.72 3.76 0 0 0.58 3.46-4.04 3.58 0 0-3.77 0.51-5.8-2.81 -1.69-2.73-1.31-5.03-1.43-5.49l-3.08 2.27 -0.04 6.83c0 0 4.42 2.85 9.35 2.78 0 0 5.61 0.03 8.3-2.66 0 0 3.01-1.77 2.97-6.69 -0.04-4.81-1.82-7.11-6.08-9.04 0 0-3.3-1.08-4.68-1.4 0 0-3.2-1.07-3.09-3.53 0.09-1.05 0.6-3.65 4.47-3.62 5.42 0.07 5 5.96 5 6.4l3.2-2.04 -0.54-6.59c0 0-1.76 0.28-4.54-0.65L135.03 115.96z"/><path fill="#CC3333" d="M98.55 116.61l-13.33 0.05v3.22h0.04c0 0 1.37 0.41 3.2 0.72 -0.02 1.98-0.11 15.92 0.35 17.14 0.51 1.19 0.63 2.98 2.66 4.83 0 0 3.96 3.72 9.97 3.39 0 0 6.38 0.23 9.53-3.62 0 0 2.78-2.18 3.01-6.62v-15.21c1.96-0.23 3.27-0.64 3.27-0.64h-0.03v-3.27h-11.59v3.27c0 0 1.07 0.34 2.74 0.58v15.33c0 0 0.49 6.21-6.55 6.79 0 0-6.03 0.36-6.03-6.84v-15.18c1.61-0.3 2.74-0.67 2.74-0.67h0.02V116.61L98.55 116.61z"/><path fill="#CC3333" d="M157.8 116.27l-10.06 25.39c-1.82 0.24-3.01 0.63-3.01 0.63h0.03v3.18h11.55v-3.18c0 0-1.12-0.37-2.88-0.62l1.41-3.43h9.16l1.38 3.42c-1.44 0.26-2.43 0.55-2.5 0.58h-0.03v3.24h12.88v-3.18h-0.01c-0.04-0.01-1.51-0.51-3.52-0.8l-9.44-25.22H157.8L157.8 116.27zM159.34 126.41l3.04 7.9h-6.03L159.34 126.41z"/></svg>