<svg version="1.1" xmlns="http://www.w3.org/2000/svg" xmlns:xlink="http://www.w3.org/1999/xlink" style="display:none;">

<symbol id="icon-book" viewBox="0 0 128 128">
<path d="M74.584 19.592h43.316v83.5h-43.316c-4.9 0-7.684 1.384-9.256 2.976v1.592c1.288-1.748 3.908-3.536 9.256-3.536h44.348v-82.468h1.032v-4.124h-45.408c-0.376 0.012-7.576 0.276-10.276 4.372 0.652 0.952 1.048 2.108 1.048 3.52 0-5.48 9.196-5.828 9.256-5.832zM8.632 104.12h44.948c9.504 0 10.408 5.6 10.496 6.664h0.020c0.040-0.464 0.244-1.784 1.232-3.128v-82.232c0-1.408-0.4-2.564-1.048-3.52-2.804-4.1-10.288-4.364-10.7-4.376h-45.98v4.124h1.032v82.468zM9.66 19.592h43.888c0.096 0.004 9.712 0.332 9.712 5.832v80.94c-1.62-1.712-4.52-3.272-9.684-3.272h-43.916v-83.5zM54.044 41.7h0.004l1.944-2.4c-0.16-0.132-4.008-3.212-8.116-3.212h-29.968v3.092h29.968c2.992 0 6.12 2.48 6.168 2.52zM54.044 56.132h0.004l0.972-1.204 0.972-1.2c-0.16-0.132-4.008-3.212-8.116-3.212h-29.968v3.092h29.968c2.992 0 6.12 2.48 6.168 2.52zM54.044 70.564l1.944-2.4c-0.16-0.132-4.008-3.212-8.116-3.212h-29.968v3.092h29.968c3.004 0 6.14 2.5 6.172 2.524zM55.020 83.792l0.972-1.2c-0.16-0.132-4.008-3.212-8.116-3.212h-29.968v3.092h29.968c3.004 0 6.14 2.5 6.172 2.524l0.972-1.204zM80.716 39.176h29.968v-3.092h-29.968c-4.112 0-7.956 3.084-8.116 3.212l1.948 2.404c0.864-0.7 3.656-2.52 6.168-2.52zM80.716 53.608h29.968v-3.092h-29.968c-4.112 0-7.956 3.080-8.116 3.212l1.948 2.404c0.864-0.7 3.656-2.52 6.168-2.52zM80.716 68.040h29.968v-3.092h-29.968c-4.112 0-7.956 3.080-8.116 3.212l1.948 2.4c0.864-0.7 3.656-2.52 6.168-2.52zM110.684 82.476v-3.092h-29.968c-4.112 0-7.956 3.080-8.116 3.212l1.948 2.4c0.864-0.7 3.656-2.52 6.168-2.52h29.968zM119.96 21.652h-1.032v82.468h-44.344c-5.348 0-7.968 1.788-9.256 3.536-0.988 1.344-1.192 2.664-1.232 3.128l-0.012 0.176-0.008-0.176c-0.088-1.068-0.992-6.664-10.492-6.664h-44.948v-82.468h-7.216v88.652h52.164s0 5.472 10.504 5.472c10.5 0 10.5-5.472 10.5-5.472h52.592v-88.652h-7.216z"></path>
</symbol>

<symbol id="icon-calculator" viewBox="0 0 128 128">
<path d="M57.356 0c-4.892 0-52.832 0-52.832 0s-4.524-0.368-4.524 4.524c0 4.892 0 52.832 0 52.832s-0.364 4.644 4.524 4.644c4.892 0 52.832 0 52.832 0s4.644 0.252 4.644-4.644c0-4.892 0-52.832 0-52.832s0.252-4.524-4.644-4.524zM46 33h-12v12h-6v-12h-12v-7h12v-12h6v12h12v7zM70.524 62c4.892 0 52.832 0 52.832 0s4.64 0.252 4.64-4.644c0-4.892 0-52.832 0-52.832s0.252-4.524-4.64-4.524c-4.892 0-52.832 0-52.832 0s-4.524-0.368-4.524 4.524c0 4.892 0 52.832 0 52.832s-0.364 4.644 4.524 4.644zM82 26h30v7h-30v-7zM57.356 66c-4.892 0-52.832 0-52.832 0s-4.524-0.368-4.524 4.524c0 4.892 0 52.832 0 52.832s-0.364 4.644 4.524 4.644c4.892 0 52.832 0 52.832 0s4.644 0.252 4.644-4.644c0-4.892 0-52.832 0-52.832s0.252-4.524-4.644-4.524zM37.24 112l-6.328-9.552-6.328 9.552h-9.316l10.9-15.792-9.964-14.208h9.492l5.332 7.912 5.276-7.912h9.2l-9.964 14.032 11.192 15.968h-9.492zM123.36 66c-4.892 0-52.832 0-52.832 0s-4.524-0.368-4.524 4.524c0 4.892 0 52.832 0 52.832s-0.364 4.644 4.524 4.644c4.892 0 52.832 0 52.832 0s4.64 0.252 4.64-4.644c0-4.892 0-52.832 0-52.832s0.252-4.524-4.64-4.524zM94.848 112h-6.84l11.136-30h6.84l-11.136 30z"></path>
</symbol>

<symbol id="icon-calculator-alt" viewBox="0 0 128 128">
<path d="M112 0h-96c-4.424 0-8 3.576-8 8v112c0 4.42 3.576 8 8 8h96c4.42 0 8-3.58 8-8v-112c0-4.42-3.58-8-8-8zM40 112h-16v-16h16v16zM40 88h-16v-16h16v16zM40 64h-16v-16h16v16zM72 112h-16v-16h16v16zM72 88h-16v-16h16v16zM72 64h-16v-16h16v16zM104 112h-16v-16h16v16zM104 88h-16v-16h16v16zM104 64h-16v-16h16v16zM104 32h-80v-16h80v16z"></path>
</symbol>

<symbol id="icon-calendar" viewBox="0 0 128 128">
<path d="M120.468 16.944h-6.276v6.276h-13.592v-6.276h-73.2v7.32h-13.592v-7.32h-6.276v30.328h112.94zM17.988 3.348h5.228v9.412h2.092v-11.504h-9.412v11.504h2.092zM104.784 3.348h5.228v9.412h2.092v-11.504h-9.412v11.504h2.092zM32.144 66.792l2.224 4.964 6.804-3.124v43.888h6.7v-51.42h-5.792zM88.6 74.604h-6.7v22.044h-10.104l7.012-37.464h-6.7l-9.168 43.508h19.2v9.896h6.456v-9.616h8.404v-6.32h-8.404zM101.664 123.92l3.12-3.452v-15.684h14.184l2.568-2.84 3.104 2.804-0.032 0.036h0.048v-92.024h-14.64v6.276h-5.228v-6.276h-81.568v7.32h-5.228v-7.32h-14.64v113.984l101.416-0.020-3.104-2.804zM100.6 122.56h-93.068v-105.616h6.276v7.32h13.596v-7.32h73.2v6.276h13.592v-6.276h6.276v83.66h-19.868v21.96zM124.636 104.748l-3.104-2.804-19.868 21.976 3.104 2.804 19.836-21.94z"></path>
</symbol>

<symbol id="icon-checkmark" viewBox="0 0 128 128">
<title>Check</title>
<path d="M0 0v128h128v-128h-128zM120 120h-112v-112h112v112zM96 28l-40 40-24-24-16 16 40 40 56-56-16-16z"></path>
</symbol>

<symbol id="icon-computer" viewBox="0 0 128 128">
<path d="M125.88 101.756c1.048 0 1.048-0.524 1.048-0.524v4.212s0 1.556-1.048 1.556h-123.756l-1.048-1.572v-4.196s0 0.524 1.048 0.524h123.756zM18.76 82.88h90.336s3.148-0.408 3.148-3.536v-55.26s0-3.084-3.148-3.084h-90.196s-3.148 0-3.148 3.124v55.128s0 3.62 3.004 3.62zM64.080 22.108c0.644 0 1.16 0.52 1.16 1.16s-0.52 1.16-1.16 1.16-1.16-0.52-1.16-1.16c0-0.644 0.52-1.16 1.16-1.16zM21 25.196h86v53.488h-86v-53.488zM112.244 84.816s-1.048-0.888-3.148-0.888h-90.196c-2.116 0-3.148 1.024-3.148 1.024l-14.684 14.268s0 1.488 1.048 1.488h123.756c1.048 0 1.048-1.524 1.048-1.524l-14.684-14.364zM18.836 92.316l6.36-7.34h77.94l5.964 7.34h-90.26z"></path>
</symbol>	

<symbol id="icon-diploma" viewBox="0 0 128 128">
<path d="M29.576 124.44c-6 0-23.836-18.252-26.524-24.744-1.048-2.532-0.328-4 0.46-4.788 3.12-3.12 48.236-48.188 73.94-73.868l17.536-17.52c0.604-0.604 1.688-1.328 3.408-1.328 7.42 0 22.392 15.132 25.608 22.896 1.556 3.752 0.576 5.844-0.516 6.94l-35.864 35.864c-24.372 24.372-52.552 52.552-55.564 55.564-0.448 0.448-1.244 0.984-2.484 0.984zM7.652 97.836c1.636 4.604 16.876 19.844 21.48 21.476 5.108-5.108 31.76-31.76 54.956-54.956l35.732-35.732c0.024-0.676-0.696-3.268-4.408-7.876-6.092-7.56-14.292-13.744-17.016-13.744-0.004 0-0.008 0-0.012 0l-17.404 17.48c-24.628 24.604-67.080 67.104-73.332 73.356zM45.38 56.572c1.864-1.864 9.196 2.436 16.1 9.344s11.212 14.236 9.344 16.104l6.608-6.608c1.868-1.864-2.436-9.196-9.344-16.104-6.904-6.908-14.128-11.104-15.992-9.236l-6.716 6.5zM72.236 83.432l-2.828-2.828c-0.104 0.108-0.148 0.216-0.156 0.248 0.28-1.276-2.548-6.884-9.188-13.524-6.34-6.34-11.66-9.192-13.412-9.192-0.076 0-0.108 0.008-0.108 0.008 0.032-0.008 0.128-0.044 0.232-0.14l-2.812-2.848 0.052-0.052 6.688-6.472c0.444-0.444 1.296-1.008 2.684-1.008 4.316 0 11.376 5.532 16.112 10.264 3.472 3.472 6.412 7.144 8.276 10.348 2.392 4.104 2.74 6.912 1.064 8.58l-6.608 6.608zM49.964 55.104c4.128 1.7 9.232 5.788 12.932 9.492 1.008 1.008 7.416 7.5 9.628 12.944l3.356-3.38c0.116-1.456-2.736-6.772-9.204-13.24-6.272-6.272-11.544-8.92-13.284-8.92-0.008 0-0.020 0-0.028 0l-3.4 3.104zM90.6 105.396l-7.712-4.688-3.216 8.432-11.24-32.788 10.928-3.744zM103.524 92.468l-4.684-7.712 8.432-3.216-32.788-11.24-3.748 10.932z"></path>	
</symbol>

<symbol id="icon-form" viewBox="0 0 128 128">
<path d="M109.116 11.056h-22.288v5h20.872v105.888h-87.408v-105.888h20.872v-5h-22.288c-1.98 0-3.588 1.608-3.588 3.588v108.712c0 1.976 1.608 3.588 3.588 3.588h90.232c1.976 0 3.588-1.608 3.588-3.588v-108.712c0-1.976-1.608-3.588-3.588-3.588zM32.472 31.496h63.056v3.26h-63.056v-3.26zM32.472 39.104h63.056v3.264h-63.056v-3.264zM32.472 46.716h43.488v3.26h-43.484v-3.26zM32.472 54.324h63.056v3.26h-63.056v-3.26zM32.472 61.936h31.528v3.264h-31.528v-3.264zM32.472 69.544h43.488v3.26h-43.484v-3.26zM32.472 77.152h43.488v3.264h-43.484v-3.264zM32.472 84.764h43.488v3.264h-43.484v-3.264zM32.472 92.376h31.528v3.26h-31.528v-3.26zM32.472 107.596h19.568v3.264h-19.568v-3.264zM63.956 114.276l4.332-1.26 32.724-32.72-3.076-3.076-32.72 32.72zM99.468 75.664l3.076 3.076-0.768 0.768-3.076-3.076 0.768-0.768zM41.172 19.536c0 0.596 0.492 1.088 1.088 1.088h43.484c0.596 0 1.088-0.488 1.088-1.088v-11.96c0-0.596-0.488-1.088-1.088-1.088h-8.696c-0.596 0-1.088-0.488-1.088-1.088v-3.264c0-0.596-0.488-1.088-1.088-1.088h-21.744c-0.596 0-1.088 0.488-1.088 1.088v3.264c0 0.596-0.488 1.088-1.088 1.088h-8.696c-0.596 0-1.088 0.492-1.088 1.088v11.96zM64.144 3.228c1.12 0 2.032 0.912 2.032 2.032s-0.908 2.032-2.032 2.032c-1.12 0-2.032-0.912-2.032-2.032s0.908-2.032 2.032-2.032z"></path>
</symbol>

<symbol id="icon-info" viewBox="0 0 128 128">
<path d="M64.168 126.924c-34.88 0-63.26-28.376-63.26-63.256s28.376-63.26 63.26-63.26c34.88 0 63.256 28.376 63.256 63.26 0 34.88-28.376 63.256-63.256 63.256zM64.168 8.408c-30.468 0-55.26 24.788-55.26 55.26s24.788 55.256 55.26 55.256 55.256-24.788 55.256-55.256c0-30.468-24.788-55.26-55.256-55.26zM77.552 101.768h-25.132v-3.488l2.508-0.212c0.864-0.068 1.612-0.212 2.244-0.42 0.984-0.316 1.716-0.868 2.192-1.664 0.476-0.792 0.712-1.816 0.712-3.084v-32.116c0-1.124-0.256-2.152-0.764-3.088-0.508-0.932-1.224-1.712-2.14-2.344-0.668-0.42-1.636-0.78-2.904-1.080s-2.428-0.484-3.484-0.556v-3.484l18.376-1.16 0.74 0.736v42.456c0 1.232 0.236 2.252 0.708 3.060 0.472 0.812 1.212 1.408 2.228 1.796 0.768 0.316 1.52 0.572 2.256 0.768s1.556 0.324 2.464 0.396v3.488zM70.952 33.036c0 2.008-0.66 3.76-1.98 5.256s-2.952 2.244-4.884 2.244c-1.796 0-3.352-0.712-4.672-2.14-1.32-1.424-1.98-3.052-1.98-4.884 0-1.936 0.66-3.624 1.98-5.068s2.88-2.164 4.672-2.164c2.008 0 3.652 0.68 4.936 2.032s1.928 2.928 1.928 4.724z"></path>	
</symbol>

<symbol id="icon-lock" viewBox="0 0 128 128">
<path d="M97.707 50.724c0.69-17.59-2.203-23.626-2.203-23.626-4.311-11.554-15.172-18.451-15.172-18.451-14.658-10.691-31.071-2.587-31.071-2.587-9.484 5.174-14.565 13.623-14.565 13.623-6.639 9.571-4.279 27.915-4.279 27.915l-7.416 2.608v64.84c23 8.967 72.575 9.829 72.575 9.829l8.425-5.69v-66.737l-6.293-1.724zM65.125 104.473l-14.691-0.987 5.829-14.377c-2.169-1.080-3.592-3.388-3.417-5.959 0.232-3.412 3.183-5.995 6.597-5.765 3.412 0.23 5.993 3.183 5.766 6.595-0.176 2.608-1.946 4.721-4.293 5.474l4.21 15.019zM47.635 46.584c0 0-1.551-11.207 1.207-17.071 0 0 4.484-8.659 15.176-8.623 0 0 10.088 0.432 14.399 11.985 0 0 1.379 2.328 1.724 15.779l-32.506-2.070z"></path>
</symbol>

<symbol id="icon-news" viewBox="0 0 128 128">
<path d="M112,16V0H0v88c0,4.418,3.582,8,8,8h108c6.628,0,12-5.372,12-12V16H112z M104,88H8V8h96V88z M16,24h80v8H16V24z M64,40h32v8 H64V40z M64,56h32v8H64V56z M64,72h24v8H64V72z M16,40h40v40H16V40z"></path>
</symbol>

<symbol id="icon-phone" viewBox="0 0 128 128">
<path d="M87.764 91.416l-11.016 6.36-44.264-51.060 8.204-11.184-17.596-30.28-4.636 2.016-12.712 26.952c17.312 65.416 77.14 92.92 77.14 92.92l30.244-8.108 2.448-3.456-28.248-23.912 0.436-0.252zM47.436 26.336l-14.628-25.312-6.612 2.88 16.864 28.396zM121.4 107.364l-24.816-21.036-6.248 3.608 27.168 22.932zM43.064 32.3v0l-0.892 1.212zM23.096 5.252l3.108-1.352zM90.332 89.936v0z"></path>
</symbol>

<symbol id="icon-rattle" viewBox="0 0 128 128">
<path d="M52.876 11.548c-0.5-0.588-1.020-1.164-1.576-1.72-1.040-1.040-2.144-1.984-3.288-2.836-1.656 8.596-6.688 18.092-14.876 26.28s-17.684 13.224-26.28 14.876c0.852 1.148 1.796 2.248 2.836 3.288 0.556 0.556 1.132 1.076 1.72 1.576 8.268-0.112 19.080-4.928 27.812-13.656 8.732-8.732 13.544-19.544 13.656-27.808zM42.268 3.668c-10.764-4.696-23.768-2.652-32.576 6.156s-10.856 21.808-6.16 32.576c7.856-0.944 17.396-5.628 25.256-13.48 7.856-7.856 12.54-17.396 13.48-25.252zM118.472 91.892c-5.604-5.604-13.876-6.932-20.756-4.012-1.276-0.76-2.728-1.096-4.164-1.008l-32.796-32.796c0.88-3.252 0.056-6.864-2.496-9.416-0.416-0.416-0.868-0.784-1.34-1.108 3.62-7.412 3.956-16.024 0.972-23.652-2.080 7.916-6.912 16.396-14.32 23.808s-15.892 12.244-23.808 14.32c7.628 2.984 16.24 2.648 23.652-0.972 0.328 0.468 0.692 0.92 1.108 1.34 2.492 2.492 6 3.336 9.188 2.552l33.012 33.012c-0.032 1.348 0.308 2.7 1.020 3.896-2.92 6.884-1.592 15.152 4.012 20.756 7.368 7.368 19.352 7.368 26.724 0 7.364-7.364 7.364-19.352 0-26.72zM113.256 113.392c-4.488 4.488-11.796 4.488-16.284 0-3.236-3.236-4.128-7.932-2.696-11.984 1.772-0.068 3.524-0.768 4.876-2.12s2.056-3.104 2.12-4.876c4.052-1.428 8.748-0.54 11.984 2.696 4.488 4.488 4.492 11.792 0 16.284z"></path>
</symbol>

<symbol id="icon-ssn-card" viewBox="0 0 128 128">
<path d="M117.016 109.020h-106.032c-5.432 0-9.848-4.42-9.848-9.848v-70.336c0-5.432 4.42-9.848 9.848-9.848h106.032c5.432 0 9.848 4.416 9.848 9.848v70.336c0 5.432-4.42 9.848-9.848 9.848zM10.984 23.98c-2.672 0-4.848 2.176-4.848 4.848v70.336c0 2.676 2.176 4.848 4.848 4.848h106.032c2.676 0 4.848-2.176 4.848-4.848v-70.336c0-2.672-2.176-4.848-4.848-4.848h-106.032zM40.904 66.1h46.192v2.1h-46.192v-2.1zM40.904 77.648h46.192v2.1h-46.192v-2.1zM9.408 91.296v6.3s0 3.152 3.152 3.152h11.524s0.024-9.448-3.356-9.448h-11.316zM28.308 48.252h-18.896v2.1h16.796s0.544 7.348-5.252 7.348v-2.1c3.348 0 3.148-3.148 3.148-3.148h-14.7v7.348h11.548c7.98 0 7.348-11.548 7.348-11.548zM9.408 60.852h11.548v29.396h-11.548v-29.396zM118.592 91.296v6.3s0 3.152-3.148 3.152h-11.512s-0.024-9.448 3.352-9.448h11.304zM99.708 48.252s-0.628 11.548 7.348 11.548h11.536v-7.348h-14.684s-0.012 3.148 3.14 3.148v2.1c-6.3 0-5.236-7.348-5.236-7.348h16.784v-2.1h-18.884zM107.044 60.852h11.548v29.396h-11.548v-29.396zM24.852 36.564c-0.224-0.344-0.488-0.584-0.796-0.724-0.304-0.136-0.616-0.176-0.936-0.12-0.532 0.096-0.924 0.364-1.168 0.812-0.308 0.564-0.392 1.24-0.256 2.020s0.432 1.368 0.884 1.756c0.388 0.332 0.844 0.456 1.368 0.36 0.524-0.092 0.916-0.364 1.16-0.808 0.292-0.532 0.368-1.188 0.232-1.964-0.096-0.548-0.256-0.992-0.484-1.336zM115.44 27.256h-102.884s-3.152 0-3.152 3.148v17.848h16.796s37.792-12.472 75.588 0h16.796v-17.848c0-3.148-3.148-3.148-3.148-3.148zM18.98 42.028c-0.436 0.572-1.052 0.944-1.848 1.12-0.372 0.084-0.72 0.108-1.048 0.084-0.332-0.024-0.688-0.108-1.072-0.252l-0.108 0.54-0.744 0.164-1.084-2.544 0.884-0.428c0.34 0.492 0.784 0.864 1.328 1.124 0.544 0.256 1.092 0.328 1.648 0.2 0.248-0.056 0.448-0.132 0.6-0.232s0.256-0.212 0.312-0.34c0.060-0.132 0.076-0.252 0.048-0.372-0.044-0.2-0.18-0.344-0.404-0.44-0.228-0.096-0.6-0.16-1.12-0.188l-1.24-0.072c-0.188-0.008-0.448-0.048-0.776-0.116-0.332-0.068-0.596-0.16-0.788-0.272-0.196-0.108-0.368-0.272-0.528-0.476s-0.264-0.44-0.32-0.692c-0.080-0.364-0.052-0.72 0.084-1.072s0.388-0.668 0.76-0.948c0.368-0.28 0.804-0.476 1.3-0.588 0.604-0.136 1.18-0.1 1.732 0.1l0.116-0.388 0.712-0.156 1.112 2.16-0.876 0.468c-0.432-0.48-0.872-0.804-1.32-0.968-0.448-0.168-0.896-0.2-1.336-0.104-0.284 0.064-0.5 0.172-0.636 0.324-0.14 0.152-0.196 0.296-0.16 0.44 0.036 0.16 0.144 0.292 0.324 0.396s0.476 0.168 0.892 0.188l1.424 0.084c0.788 0.044 1.38 0.204 1.772 0.48 0.392 0.28 0.636 0.652 0.74 1.116 0.128 0.596 0 1.148-0.384 1.664zM27.136 39.488c-0.22 0.6-0.58 1.096-1.084 1.492s-1.148 0.66-1.936 0.8c-1.040 0.184-1.936 0.052-2.696-0.392-0.916-0.532-1.476-1.368-1.676-2.496-0.184-1.052 0.012-1.976 0.592-2.768 0.584-0.792 1.436-1.292 2.572-1.492 1.116-0.196 2.076-0.024 2.884 0.52s1.304 1.34 1.488 2.384c0.124 0.704 0.076 1.352-0.144 1.956zM34.228 39.592c-0.592 0.504-1.292 0.812-2.088 0.924-0.668 0.092-1.288 0.020-1.872-0.22-0.58-0.24-1.072-0.62-1.468-1.136-0.4-0.52-0.644-1.112-0.736-1.776s-0.020-1.288 0.216-1.88 0.604-1.072 1.096-1.452c0.496-0.38 1.076-0.616 1.736-0.708 0.672-0.092 1.28-0.036 1.824 0.172l0.124-0.32 0.72-0.1 1.040 2.396-0.904 0.4c-0.396-0.548-0.752-0.932-1.060-1.144-0.432-0.288-0.872-0.4-1.32-0.34-0.328 0.044-0.624 0.176-0.884 0.396s-0.448 0.516-0.568 0.888c-0.116 0.372-0.148 0.792-0.080 1.26 0.1 0.712 0.376 1.3 0.828 1.764 0.456 0.46 0.992 0.648 1.612 0.56 0.396-0.056 0.76-0.22 1.092-0.492 0.416-0.34 0.76-0.764 1.028-1.272l0.864 0.464c-0.416 0.756-0.816 1.296-1.2 1.624zM36.18 39.868l-0.108-0.964 0.28-0.032c0.2-0.020 0.328-0.052 0.388-0.088 0.056-0.032 0.096-0.084 0.12-0.148 0.020-0.064 0.024-0.188 0.004-0.372l-0.436-3.868c-0.024-0.216-0.056-0.356-0.092-0.42s-0.092-0.112-0.16-0.14c-0.052-0.020-0.168-0.020-0.352 0l-0.316 0.036-0.108-0.964 3.46-0.392 0.108 0.964-0.316 0.036c-0.184 0.020-0.3 0.048-0.356 0.088s-0.096 0.096-0.116 0.164c-0.020 0.072-0.020 0.204 0 0.396l0.432 3.852c0.024 0.212 0.048 0.344 0.080 0.4s0.076 0.096 0.136 0.116c0.076 0.032 0.184 0.040 0.328 0.024l0.376-0.044 0.108 0.964-3.46 0.392zM44.088 39.060l-0.084-0.968 0.204-0.020c0.188-0.016 0.316-0.052 0.388-0.108s0.104-0.12 0.096-0.188c-0.004-0.060-0.048-0.184-0.128-0.364l-0.268-0.616-2.16 0.188-0.204 0.728-0.056 0.3 0.072 0.14c0.044 0.040 0.108 0.068 0.2 0.080 0.056 0.008 0.22 0 0.48-0.020l0.084 0.964-2.752 0.24-0.084-0.964c0.176-0.016 0.304-0.044 0.384-0.080s0.144-0.088 0.188-0.152c0.048-0.064 0.096-0.18 0.148-0.352l1.712-5.692 1.596-0.14 2.604 5.204c0.14 0.276 0.26 0.444 0.356 0.504s0.264 0.076 0.504 0.052l0.084 0.968-3.36 0.296zM53.268 38.436l-5.44 0.316-0.056-0.968 0.34-0.020c0.14-0.008 0.24-0.032 0.312-0.072 0.068-0.040 0.116-0.092 0.148-0.156 0.028-0.064 0.036-0.172 0.028-0.328l-0.228-3.964c-0.008-0.168-0.032-0.284-0.068-0.356s-0.084-0.12-0.148-0.152c-0.060-0.028-0.16-0.044-0.3-0.032l-0.376 0.020-0.056-0.968 3.48-0.2 0.056 0.968-0.304 0.020c-0.168 0.008-0.276 0.024-0.32 0.044-0.080 0.036-0.136 0.092-0.168 0.16-0.032 0.072-0.044 0.184-0.036 0.332l0.232 3.996c0.008 0.16 0.020 0.26 0.040 0.296l0.1 0.084c0.048 0.020 0.14 0.024 0.276 0.016 0.456-0.024 0.816-0.108 1.088-0.24s0.512-0.336 0.72-0.608c0.208-0.272 0.38-0.636 0.516-1.088l0.956 0.264-0.792 2.644zM63.484 37.6c-0.544 0.472-1.22 0.712-2.036 0.724-0.376 0.004-0.728-0.036-1.044-0.132-0.32-0.092-0.652-0.248-1-0.464l-0.22 0.504-0.764 0.012-0.544-2.712 0.956-0.24c0.232 0.548 0.592 1.008 1.072 1.368s1.004 0.54 1.576 0.532c0.256-0.004 0.468-0.036 0.636-0.104s0.292-0.156 0.376-0.272c0.084-0.116 0.124-0.236 0.124-0.352-0.004-0.2-0.104-0.372-0.304-0.512-0.204-0.144-0.556-0.28-1.060-0.412l-1.2-0.324c-0.184-0.048-0.428-0.14-0.736-0.276-0.312-0.136-0.548-0.276-0.716-0.424s-0.308-0.34-0.42-0.572c-0.112-0.236-0.172-0.48-0.172-0.744-0.004-0.372 0.096-0.716 0.3-1.032 0.204-0.32 0.516-0.576 0.936-0.776 0.416-0.2 0.884-0.304 1.392-0.312 0.616-0.008 1.176 0.14 1.68 0.448l0.196-0.356 0.728-0.012 0.648 2.34-0.952 0.28c-0.324-0.556-0.688-0.96-1.096-1.216-0.404-0.256-0.836-0.38-1.288-0.372-0.292 0.004-0.52 0.068-0.688 0.188s-0.248 0.252-0.248 0.396c0.004 0.164 0.080 0.316 0.236 0.456 0.152 0.136 0.428 0.26 0.832 0.364l1.376 0.372c0.764 0.204 1.308 0.48 1.64 0.832 0.328 0.352 0.492 0.768 0.5 1.244 0.008 0.608-0.228 1.124-0.716 1.548zM71.016 38.268l-6.172-0.104 0.016-0.972 0.18 0.004c0.236 0.004 0.396-0.008 0.48-0.040 0.080-0.032 0.14-0.092 0.176-0.172 0.016-0.048 0.028-0.192 0.032-0.428l0.064-3.816c0.004-0.208-0.008-0.344-0.036-0.408s-0.072-0.112-0.136-0.148c-0.060-0.032-0.184-0.048-0.36-0.052l-0.32-0.004 0.016-0.968 5.956 0.1 0.776 2.228-0.932 0.312c-0.152-0.364-0.328-0.66-0.536-0.884s-0.436-0.376-0.688-0.452c-0.252-0.076-0.548-0.116-0.884-0.124l-1.088-0.020-0.028 1.748 0.356 0.008c0.268 0.004 0.452-0.012 0.548-0.048s0.164-0.096 0.204-0.176c0.044-0.080 0.068-0.244 0.068-0.488l0.004-0.264 0.908 0.016-0.048 2.968-0.912-0.016 0.004-0.3c0.004-0.204-0.020-0.356-0.068-0.452s-0.112-0.16-0.196-0.196c-0.084-0.032-0.272-0.056-0.568-0.060l-0.324-0.004-0.024 1.612c-0.004 0.172 0.004 0.276 0.020 0.312l0.1 0.088s0.152 0.032 0.32 0.036l0.6 0.012c0.448 0.008 0.824-0.048 1.136-0.172 0.308-0.12 0.584-0.32 0.832-0.596 0.244-0.276 0.436-0.608 0.572-0.992l0.928 0.332-0.98 2.588zM78.108 38.084c-0.68 0.384-1.42 0.556-2.228 0.516-0.672-0.032-1.268-0.224-1.796-0.568-0.524-0.344-0.94-0.808-1.232-1.392s-0.424-1.212-0.388-1.884c0.032-0.672 0.22-1.272 0.564-1.804s0.796-0.94 1.352-1.22c0.56-0.28 1.172-0.404 1.836-0.372 0.676 0.032 1.264 0.204 1.76 0.512l0.184-0.292 0.724 0.036 0.572 2.548-0.964 0.224c-0.288-0.616-0.564-1.056-0.828-1.32-0.372-0.364-0.78-0.556-1.236-0.584-0.328-0.016-0.644 0.060-0.94 0.224s-0.54 0.42-0.724 0.764c-0.188 0.344-0.292 0.752-0.316 1.224-0.036 0.72 0.128 1.348 0.488 1.884 0.36 0.54 0.852 0.824 1.48 0.852 0.4 0.020 0.788-0.072 1.168-0.276 0.472-0.252 0.892-0.608 1.248-1.060l0.764 0.616c-0.548 0.664-1.044 1.12-1.48 1.368zM86.988 33.28c-0.084 0.032-0.148 0.084-0.192 0.16-0.032 0.048-0.060 0.184-0.076 0.412l-0.236 2.752c-0.044 0.508-0.152 0.928-0.332 1.256-0.248 0.448-0.608 0.784-1.084 1.004s-1.024 0.304-1.648 0.252c-0.44-0.036-0.824-0.136-1.16-0.3-0.336-0.16-0.624-0.376-0.86-0.644s-0.396-0.544-0.48-0.824c-0.080-0.284-0.1-0.692-0.052-1.224l0.232-2.7c0.024-0.248 0.024-0.408 0-0.48-0.020-0.072-0.060-0.132-0.12-0.168s-0.176-0.068-0.352-0.080l-0.328-0.028 0.080-0.968 3.472 0.296-0.084 0.968-0.34-0.028c-0.156-0.016-0.268-0.004-0.336 0.028s-0.124 0.080-0.16 0.144c-0.036 0.068-0.064 0.204-0.080 0.416l-0.22 2.544c-0.040 0.472-0.024 0.832 0.056 1.072s0.208 0.432 0.396 0.572c0.184 0.14 0.416 0.22 0.696 0.244s0.536-0.020 0.764-0.136c0.232-0.112 0.4-0.272 0.512-0.468 0.108-0.196 0.188-0.532 0.228-1.008l0.24-2.804c0.012-0.116 0-0.2-0.024-0.252-0.036-0.072-0.084-0.12-0.152-0.156-0.048-0.024-0.164-0.044-0.36-0.060l-0.276-0.024 0.080-0.968 2.936 0.252-0.084 0.964-0.228-0.020c-0.228-0.020-0.372-0.020-0.428 0.004zM95.376 40.324l-2.268-0.28-1.904-3.28-0.592-0.072-0.172 1.388c-0.032 0.24-0.036 0.392-0.020 0.46 0.020 0.068 0.060 0.12 0.112 0.16 0.056 0.040 0.172 0.068 0.352 0.092l0.324 0.040-0.12 0.964-3.468-0.428 0.12-0.964 0.316 0.040c0.168 0.020 0.288 0.020 0.364-0.008 0.072-0.024 0.128-0.072 0.172-0.136 0.024-0.036 0.048-0.16 0.072-0.372l0.484-3.916c0.020-0.152 0.020-0.264 0-0.332s-0.056-0.116-0.108-0.144c-0.076-0.048-0.168-0.076-0.272-0.092l-0.144-0.012-0.264-0.032 0.12-0.992 4.368 0.544c0.28 0.036 0.584 0.1 0.912 0.188s0.616 0.236 0.864 0.44c0.248 0.2 0.432 0.444 0.548 0.72s0.152 0.58 0.112 0.904c-0.064 0.528-0.312 0.932-0.732 1.212s-0.904 0.44-1.44 0.472l1.304 1.932c0.080 0.124 0.152 0.22 0.228 0.284l0.22 0.148c0.076 0.032 0.184 0.060 0.324 0.076l0.304 0.036-0.116 0.964zM100.048 34.968l-0.312-0.048c-0.184-0.028-0.304-0.032-0.368-0.008-0.064 0.020-0.116 0.064-0.152 0.128-0.040 0.064-0.072 0.192-0.104 0.384l-0.592 3.832c-0.032 0.208-0.044 0.344-0.024 0.408 0.016 0.064 0.048 0.112 0.1 0.148 0.064 0.048 0.168 0.088 0.312 0.108l0.376 0.060-0.152 0.956-3.44-0.532 0.148-0.956 0.28 0.044c0.196 0.032 0.332 0.036 0.396 0.020 0.064-0.020 0.116-0.056 0.152-0.112 0.040-0.056 0.072-0.176 0.104-0.356l0.592-3.848c0.036-0.216 0.040-0.36 0.020-0.432s-0.060-0.132-0.12-0.18c-0.044-0.032-0.156-0.068-0.34-0.092l-0.316-0.048 0.152-0.956 3.44 0.532-0.148 0.956zM106.472 37.72c-0.132-0.44-0.232-0.728-0.304-0.868-0.136-0.276-0.304-0.5-0.508-0.684-0.152-0.136-0.316-0.22-0.488-0.252-0.080-0.016-0.14-0.008-0.176 0.024s-0.064 0.116-0.092 0.252l-0.728 3.964c-0.044 0.236-0.064 0.38-0.056 0.444l0.060 0.156 0.152 0.1s0.256 0.064 0.564 0.12l-0.176 0.956-3.424-0.632 0.176-0.952 0.208 0.040c0.228 0.044 0.38 0.056 0.448 0.040s0.128-0.056 0.176-0.12c0.048-0.064 0.092-0.208 0.132-0.432l0.748-4.048c0.020-0.116 0.020-0.188 0-0.224-0.024-0.032-0.076-0.060-0.164-0.076-0.176-0.032-0.38-0.004-0.62 0.084-0.236 0.088-0.464 0.236-0.672 0.44-0.084 0.080-0.276 0.312-0.568 0.696l-0.86-0.492 1.312-2.256 0.664 0.12 0.024 0.244 3.952 0.728 0.128-0.216 0.672 0.124 0.424 2.576-0.996 0.148zM115.032 37.98c-0.244-0.052-0.42-0.060-0.532-0.032-0.108 0.032-0.256 0.132-0.436 0.3l-2.452 2.24-0.276 1.22c-0.048 0.216-0.068 0.36-0.052 0.428 0.016 0.072 0.052 0.128 0.112 0.176 0.064 0.048 0.192 0.092 0.396 0.136l0.244 0.056-0.212 0.944-3.4-0.764 0.212-0.944 0.184 0.044c0.24 0.056 0.396 0.072 0.472 0.056 0.072-0.020 0.136-0.056 0.188-0.124s0.104-0.208 0.152-0.432l0.24-1.072-1.232-3.184c-0.096-0.248-0.196-0.416-0.292-0.492-0.072-0.052-0.228-0.108-0.464-0.16l0.212-0.944 3.46 0.776-0.212 0.948-0.256-0.060c-0.184-0.040-0.304-0.052-0.356-0.036s-0.084 0.056-0.1 0.12c-0.020 0.084 0.008 0.224 0.076 0.416l0.58 1.688 1.564-1.512 0.044-0.104-0.028-0.136c-0.032-0.032-0.116-0.068-0.256-0.1l-0.352-0.080 0.212-0.944 2.776 0.62-0.212 0.948zM42.42 35.96l1.412-0.124-0.852-1.856zM93.452 35.056c0.024-0.184-0.008-0.348-0.084-0.492-0.080-0.144-0.204-0.256-0.372-0.344-0.172-0.084-0.456-0.152-0.86-0.2l-1.168-0.144-0.224 1.8 1.052 0.132c0.412 0.052 0.724 0.052 0.94 0.004 0.212-0.048 0.38-0.136 0.5-0.264 0.116-0.128 0.188-0.292 0.216-0.488z"></path>
</symbol>

<symbol id="icon-weather" viewBox="0 0 128 128">
<path d="M60.864 83.308l6.648-13.152h-0.076zM67.44 70.152h0.076l9.148-18.084-6.344 18.084h55.576c7.124-40.072-17.72-32.86-17.72-32.86 0-22.288-28.496-18.5-28.496-18.5-2.924-18.996-27.4-17-27.4-17-30.14 0-31.784 30.848-31.784 30.848-24.844 0-18.816 37.516-18.816 37.516h43.048l10.292-26.032-13.88 50.688h17.352l-10.776 32.252 26.3-43.556h-13.148l6.572-13.356zM28.8 82.484s-8.976 3.864-5.060 6.68c0 0 3.572 2.032 5.060-6.68zM13.388 100.98s-8.976 3.864-5.060 6.68c0 0 3.568 2.032 5.060-6.68zM27.776 110.228s-8.976 3.864-5.060 6.68c0 0 3.572 2.032 5.060-6.68zM90.452 89.676s-8.976 3.864-5.060 6.68c0 0 3.568 2.032 5.060-6.68zM105.864 105.088s-8.976 3.864-5.060 6.68c0 0 3.568 2.032 5.060-6.68z"></path>
</symbol>

<symbol id="icon-wheelchair-zip" viewBox="0 0 128 128">
<path d="M94.036 40.572c0 0 5.92-6.476 0-10.488l-35.376-21.396c0 0-5.22-3.684-8.812 0l-18.316 16.64c0 0-3.636 3.548 0.14 8.128 0 0 4.56 6.328 9.788 2.36l13.144-11.188c0 0 0.7-0.7 1.816 0l8.464 4.836c0 0 0.976 0.492 0.204 1.316l-17.48 19.996c0 0-12.584 0.56-19.716 9.648l9.368 10.068c0 0 16.78-14.684 33.14 0 0 0 16.78 15.94 1.256 33.7l9.508 9.928c0 0 16.92-16.080 6.712-42.088l9.508-0.84-2.096 30.904c0 0-0.384 5.836 6.992 6.432 0 0 6.66 0.524 7.272-6.012l3.216-39.852c0 0 0.7-6.104-4.896-6.432l-28.244 0.7 14.404-16.36zM23.84 64.904l9.648 9.788c0 0-11.744 21.392 6.852 33.56 0 0 13.844 8.392 26.848 0l10.068 9.788c0 0-31.976 20.092-54.58-7.784 0 0-16.456-22.56 1.164-45.352zM109.976 14.148c0 6.796-5.508 12.304-12.304 12.304s-12.304-5.508-12.304-12.304c0-6.796 5.508-12.304 12.304-12.304s12.304 5.508 12.304 12.304z"></path>
</symbol>

</svg>