<svg version="1.1" xmlns="http://www.w3.org/2000/svg" xmlns:xlink="http://www.w3.org/1999/xlink" x="0px" y="0px" width="36px" height="16px" viewBox="62.907 0 36 16"> 
<g id="icon-minus"><path fill="#1155CC" d="M76.907,0h-12c-1.101,0-2,0.9-2,2v12c0,1.1,0.899,2,2,2h12c1.101,0,2-0.9,2-2V2 C78.907,0.901,78.008,0,76.907,0z M75.907,9h-10V7h10V9z"></path></g> 
<g id="icon-plus"><path fill="#1155CC" d="M95.803,0h-12c-1.1,0-2,0.9-2,2v12c0,1.102,0.9,2,2,2h12c1.1,0,2-0.898,2-2V2 C97.803,0.901,96.903,0,95.803,0z M94.803,9h-4v4h-2V9h-4V7h4V3h2v4h4V9z"></path></g>
</svg>