<svg width="128" height="128" xmlns="http://www.w3.org/2000/svg" class="metadata"><title>Layer 1</title><path fill="#333" d="M12.213 105.225l25.959-23.728c2.683-2.595 5.553-3.788 7.872-3.672-6.127-7.714-9.829-17.722-9.829-28.659 0-24.393 18.4-44.167 41.097-44.167 22.697 0 41.097 19.774 41.097 44.167s-18.4 44.167-41.097 44.167c-10.177 0-19.49-3.978-26.668-10.564.107 2.491-1.002 5.576-3.416 8.46l-22.078 27.898c-3.78 4.514-9.956 4.894-13.722.846s-3.414-10.686.786-14.747zm65.098-26.614c15.131 0 27.398-13.182 27.398-29.444s-12.266-29.445-27.398-29.445-27.398 13.182-27.398 29.444 12.267 29.445 27.398 29.445z"/></svg>